<svg width="70" height="58" viewBox="0 0 70 58" fill="none" xmlns="http://www.w3.org/2000/svg">
<path d="M70.0001 29C70.0001 36.0046 67.4648 42.7726 62.8627 48.0532C58.2606 53.3339 51.9027 56.7705 44.9638 57.7279C38.0249 58.6852 30.974 57.0988 25.1138 53.2617C19.2537 49.4245 14.9804 43.596 13.0836 36.8531C11.1868 30.1102 11.7946 22.9086 14.7948 16.579C17.7949 10.2494 22.9847 5.21955 29.4051 2.4189C35.8254 -0.381752 43.0425 -0.76395 49.7228 1.34293C56.403 3.4498 62.095 7.90336 65.7469 13.8807L58.107 18.5484C55.5825 14.4164 51.6478 11.3378 47.0299 9.88133C42.412 8.4249 37.423 8.6891 32.9847 10.6251C28.5465 12.5611 24.9589 16.0381 22.885 20.4136C20.811 24.7891 20.3909 29.7674 21.7021 34.4287C23.0133 39.0899 25.9673 43.119 30.0183 45.7715C34.0693 48.424 38.9434 49.5207 43.7401 48.8589C48.5368 48.197 52.9318 45.8215 56.1132 42.1711C20.5001 42.171 0 33.8421 0 29H70.0001Z" fill="#F0A500"/>
</svg>
