<svg width="282" height="181" viewBox="0 0 282 181" fill="none" xmlns="http://www.w3.org/2000/svg">
<g filter="url(#filter0_d_46_1804)">
<rect x="1" width="280" height="152" rx="16" fill="url(#paint0_linear_46_1804)" shape-rendering="crispEdges"/>
<g clip-path="url(#clip0_46_1804)">
<path d="M54.114 26.1918H38.4585C37.2607 26.1918 36.2863 27.1662 36.2863 28.364V39.636C36.2863 40.8338 37.2607 41.8082 38.4585 41.8082H54.114C55.3118 41.8082 56.2863 40.8338 56.2863 39.636V28.364C56.2863 27.1662 55.3118 26.1918 54.114 26.1918ZM54.4467 33.7064H49.7109V31.4951C49.7109 31.3117 49.8601 31.1624 50.0436 31.1624H54.4467V33.7064ZM49.7109 34.2935H54.4467V36.8376H49.7109V34.2935ZM55.0338 32.728H55.6992V35.272H55.0338V32.728ZM55.0338 32.1409V29.5969H55.6992V32.1409H55.0338ZM54.4467 30.5753H50.0436C49.5364 30.5753 49.1238 30.9879 49.1238 31.4951V39.9687H43.4487V28.0313H54.114C54.2975 28.0313 54.4467 28.1805 54.4467 28.364V30.5753ZM42.8616 33.7064H38.1258V31.1624H42.8616V33.7064ZM37.5387 35.272H36.8733V32.728H37.5387V35.272ZM38.1258 34.2935H42.8616V36.8376H38.1258V34.2935ZM46.5798 27.4442V26.7789H51.9418V27.4442H46.5798ZM45.9927 27.4442H40.6307V26.7789H45.9927V27.4442ZM42.8616 28.0313V30.5753H38.1258V28.364C38.1258 28.1805 38.275 28.0313 38.4585 28.0313H42.8616ZM37.5387 32.1409H36.8733V29.5969H37.5387V32.1409ZM36.8733 35.8591H37.5387V38.4031H36.8733V35.8591ZM38.1258 37.4246H42.8616V39.9687H38.4585C38.275 39.9687 38.1258 39.8194 38.1258 39.636V37.4246ZM45.9927 40.5558V41.2211H40.6307V40.5558H45.9927ZM46.5798 40.5558H51.9418V41.2211H46.5798V40.5558ZM49.7109 39.9687V37.4246H54.4467V39.636C54.4467 39.8194 54.2975 39.9687 54.114 39.9687H49.7109ZM55.0338 35.8591H55.6992V38.4031H55.0338V35.8591ZM55.6992 28.364V29.0098H55.0338V28.364C55.0338 27.8568 54.6212 27.4442 54.114 27.4442H52.5289V26.7789H54.114C54.9881 26.7789 55.6992 27.4899 55.6992 28.364ZM38.4585 26.7789H40.0436V27.4442H38.4585C37.9513 27.4442 37.5387 27.8568 37.5387 28.364V29.0098H36.8733V28.364C36.8733 27.4899 37.5844 26.7789 38.4585 26.7789ZM36.8733 39.636V38.9902H37.5387V39.636C37.5387 40.1432 37.9513 40.5558 38.4585 40.5558H40.0436V41.2211H38.4585C37.5844 41.2211 36.8733 40.51 36.8733 39.636ZM54.114 41.2211H52.5289V40.5558H54.114C54.6212 40.5558 55.0338 40.1432 55.0338 39.636V38.9902H55.6992V39.636C55.6992 40.51 54.9881 41.2211 54.114 41.2211Z" fill="#DADADA"/>
</g>
<path d="M238.714 26.6401C246.07 26.6401 252 32.572 252 39.9318" stroke="#DADADA" stroke-width="1.5" stroke-linecap="round" stroke-linejoin="round"/>
<path d="M239.263 32.6818C242.886 32.6818 245.851 35.6477 245.851 39.2727" stroke="#DADADA" stroke-width="1.5" stroke-linecap="round" stroke-linejoin="round"/>
<path d="M240.739 39.3825C240.739 40.1986 240.078 40.8598 239.263 40.8598C238.447 40.8598 237.786 40.1986 237.786 39.3825C237.786 38.5665 238.447 37.9053 239.263 37.9053C240.078 37.9053 240.739 38.5665 240.739 39.3825Z" stroke="#DADADA"/>
<path d="M73.442 70.736L73.554 69.126H73.624L72.182 70.106L71.664 69.196L73.232 68.44L73.204 68.51L71.636 67.754L72.168 66.858L73.624 67.838L73.554 67.81L73.442 66.2H74.492L74.366 67.978L74.254 67.866L75.696 66.886L76.214 67.796L74.632 68.566V68.412L76.2 69.182L75.682 70.078L74.226 69.098L74.38 69.126L74.492 70.736H73.442ZM80.2561 70.736L80.3681 69.126H80.4381L78.9961 70.106L78.4781 69.196L80.0461 68.44L80.0181 68.51L78.4501 67.754L78.9821 66.858L80.4381 67.838L80.3681 67.81L80.2561 66.2H81.3061L81.1801 67.978L81.0681 67.866L82.5101 66.886L83.0281 67.796L81.4461 68.566V68.412L83.0141 69.182L82.4961 70.078L81.0401 69.098L81.1941 69.126L81.3061 70.736H80.2561ZM87.0701 70.736L87.1821 69.126H87.2521L85.8101 70.106L85.2921 69.196L86.8601 68.44L86.8321 68.51L85.2641 67.754L85.7961 66.858L87.2521 67.838L87.1821 67.81L87.0701 66.2H88.1201L87.9941 67.978L87.8821 67.866L89.3241 66.886L89.8421 67.796L88.2601 68.566V68.412L89.8281 69.182L89.3101 70.078L87.8541 69.098L88.0081 69.126L88.1201 70.736H87.0701ZM93.8842 70.736L93.9962 69.126H94.0662L92.6242 70.106L92.1062 69.196L93.6742 68.44L93.6462 68.51L92.0782 67.754L92.6102 66.858L94.0662 67.838L93.9962 67.81L93.8842 66.2H94.9342L94.8082 67.978L94.6962 67.866L96.1382 66.886L96.6562 67.796L95.0742 68.566V68.412L96.6422 69.182L96.1242 70.078L94.6682 69.098L94.8222 69.126L94.9342 70.736H93.8842ZM111.346 70.736L111.458 69.126H111.528L110.086 70.106L109.568 69.196L111.136 68.44L111.108 68.51L109.54 67.754L110.072 66.858L111.528 67.838L111.458 67.81L111.346 66.2H112.396L112.27 67.978L112.158 67.866L113.6 66.886L114.118 67.796L112.536 68.566V68.412L114.104 69.182L113.586 70.078L112.13 69.098L112.284 69.126L112.396 70.736H111.346ZM118.16 70.736L118.272 69.126H118.342L116.9 70.106L116.382 69.196L117.95 68.44L117.922 68.51L116.354 67.754L116.886 66.858L118.342 67.838L118.272 67.81L118.16 66.2H119.21L119.084 67.978L118.972 67.866L120.414 66.886L120.932 67.796L119.35 68.566V68.412L120.918 69.182L120.4 70.078L118.944 69.098L119.098 69.126L119.21 70.736H118.16ZM124.974 70.736L125.086 69.126H125.156L123.714 70.106L123.196 69.196L124.764 68.44L124.736 68.51L123.168 67.754L123.7 66.858L125.156 67.838L125.086 67.81L124.974 66.2H126.024L125.898 67.978L125.786 67.866L127.228 66.886L127.746 67.796L126.164 68.566V68.412L127.732 69.182L127.214 70.078L125.758 69.098L125.912 69.126L126.024 70.736H124.974ZM131.788 70.736L131.9 69.126H131.97L130.528 70.106L130.01 69.196L131.578 68.44L131.55 68.51L129.982 67.754L130.514 66.858L131.97 67.838L131.9 67.81L131.788 66.2H132.838L132.712 67.978L132.6 67.866L134.042 66.886L134.56 67.796L132.978 68.566V68.412L134.546 69.182L134.028 70.078L132.572 69.098L132.726 69.126L132.838 70.736H131.788ZM149.25 70.736L149.362 69.126H149.432L147.99 70.106L147.472 69.196L149.04 68.44L149.012 68.51L147.444 67.754L147.976 66.858L149.432 67.838L149.362 67.81L149.25 66.2H150.3L150.174 67.978L150.062 67.866L151.504 66.886L152.022 67.796L150.44 68.566V68.412L152.008 69.182L151.49 70.078L150.034 69.098L150.188 69.126L150.3 70.736H149.25ZM156.064 70.736L156.176 69.126H156.246L154.804 70.106L154.286 69.196L155.854 68.44L155.826 68.51L154.258 67.754L154.79 66.858L156.246 67.838L156.176 67.81L156.064 66.2H157.114L156.988 67.978L156.876 67.866L158.318 66.886L158.836 67.796L157.254 68.566V68.412L158.822 69.182L158.304 70.078L156.848 69.098L157.002 69.126L157.114 70.736H156.064ZM162.878 70.736L162.99 69.126H163.06L161.618 70.106L161.1 69.196L162.668 68.44L162.64 68.51L161.072 67.754L161.604 66.858L163.06 67.838L162.99 67.81L162.878 66.2H163.928L163.802 67.978L163.69 67.866L165.132 66.886L165.65 67.796L164.068 68.566V68.412L165.636 69.182L165.118 70.078L163.662 69.098L163.816 69.126L163.928 70.736H162.878ZM169.692 70.736L169.804 69.126H169.874L168.432 70.106L167.914 69.196L169.482 68.44L169.454 68.51L167.886 67.754L168.418 66.858L169.874 67.838L169.804 67.81L169.692 66.2H170.742L170.616 67.978L170.504 67.866L171.946 66.886L172.464 67.796L170.882 68.566V68.412L172.45 69.182L171.932 70.078L170.476 69.098L170.63 69.126L170.742 70.736H169.692ZM187.154 70.736L187.266 69.126H187.336L185.894 70.106L185.376 69.196L186.944 68.44L186.916 68.51L185.348 67.754L185.88 66.858L187.336 67.838L187.266 67.81L187.154 66.2H188.204L188.078 67.978L187.966 67.866L189.408 66.886L189.926 67.796L188.344 68.566V68.412L189.912 69.182L189.394 70.078L187.938 69.098L188.092 69.126L188.204 70.736H187.154ZM193.968 70.736L194.08 69.126H194.15L192.708 70.106L192.19 69.196L193.758 68.44L193.73 68.51L192.162 67.754L192.694 66.858L194.15 67.838L194.08 67.81L193.968 66.2H195.018L194.892 67.978L194.78 67.866L196.222 66.886L196.74 67.796L195.158 68.566V68.412L196.726 69.182L196.208 70.078L194.752 69.098L194.906 69.126L195.018 70.736H193.968ZM200.782 70.736L200.894 69.126H200.964L199.522 70.106L199.004 69.196L200.572 68.44L200.544 68.51L198.976 67.754L199.508 66.858L200.964 67.838L200.894 67.81L200.782 66.2H201.832L201.706 67.978L201.594 67.866L203.036 66.886L203.554 67.796L201.972 68.566V68.412L203.54 69.182L203.022 70.078L201.566 69.098L201.72 69.126L201.832 70.736H200.782ZM207.596 70.736L207.708 69.126H207.778L206.336 70.106L205.818 69.196L207.386 68.44L207.358 68.51L205.79 67.754L206.322 66.858L207.778 67.838L207.708 67.81L207.596 66.2H208.646L208.52 67.978L208.408 67.866L209.85 66.886L210.368 67.796L208.786 68.566V68.412L210.354 69.182L209.836 70.078L208.38 69.098L208.534 69.126L208.646 70.736H207.596Z" fill="#DADADA"/>
<path d="M30.869 98V93.8H33.413V94.256H31.337V97.544H33.401V98H30.869ZM31.085 96.068V95.612H33.077V96.068H31.085ZM36.4108 98L35.3248 96.602L35.2708 96.536L33.9688 94.868H34.5388L35.6068 96.242L35.6668 96.32L36.9748 98H36.4108ZM33.9448 98L35.2228 96.35L35.4928 96.674L34.4848 98H33.9448ZM35.6968 96.464L35.4388 96.146L36.3508 94.868H36.8968L35.6968 96.464ZM37.5093 99.32V94.868H37.9593L37.9713 95.63L37.8873 95.642C37.9233 95.49 38.0013 95.352 38.1213 95.228C38.2413 95.1 38.3873 94.998 38.5593 94.922C38.7313 94.846 38.9133 94.808 39.1053 94.808C39.3853 94.808 39.6353 94.878 39.8553 95.018C40.0793 95.158 40.2573 95.35 40.3893 95.594C40.5213 95.838 40.5873 96.118 40.5873 96.434C40.5873 96.746 40.5233 97.024 40.3953 97.268C40.2673 97.512 40.0913 97.706 39.8673 97.85C39.6433 97.99 39.3913 98.06 39.1113 98.06C38.9153 98.06 38.7293 98.02 38.5533 97.94C38.3773 97.86 38.2273 97.756 38.1033 97.628C37.9793 97.496 37.8973 97.354 37.8573 97.202H37.9653V99.32H37.5093ZM39.0393 97.628C39.2513 97.628 39.4393 97.576 39.6033 97.472C39.7673 97.368 39.8973 97.226 39.9933 97.046C40.0893 96.866 40.1373 96.662 40.1373 96.434C40.1373 96.202 40.0893 95.996 39.9933 95.816C39.8973 95.636 39.7673 95.494 39.6033 95.39C39.4393 95.286 39.2513 95.234 39.0393 95.234C38.8273 95.234 38.6373 95.286 38.4693 95.39C38.3053 95.49 38.1753 95.63 38.0793 95.81C37.9833 95.99 37.9353 96.196 37.9353 96.428C37.9353 96.66 37.9833 96.866 38.0793 97.046C38.1753 97.226 38.3053 97.368 38.4693 97.472C38.6373 97.576 38.8273 97.628 39.0393 97.628ZM41.3617 98V94.868H41.8117V98H41.3617ZM41.5837 94.19C41.4717 94.19 41.3857 94.162 41.3257 94.106C41.2697 94.046 41.2417 93.966 41.2417 93.866C41.2417 93.766 41.2717 93.686 41.3317 93.626C41.3917 93.566 41.4757 93.536 41.5837 93.536C41.6917 93.536 41.7757 93.566 41.8357 93.626C41.8957 93.682 41.9257 93.762 41.9257 93.866C41.9257 93.962 41.8957 94.04 41.8357 94.1C41.7757 94.16 41.6917 94.19 41.5837 94.19ZM42.7944 98V94.868H43.2444L43.2564 95.702L43.2084 95.588C43.2524 95.448 43.3224 95.318 43.4184 95.198C43.5184 95.078 43.6364 94.982 43.7724 94.91C43.9084 94.838 44.0584 94.802 44.2224 94.802C44.2904 94.802 44.3544 94.808 44.4144 94.82C44.4744 94.828 44.5244 94.84 44.5644 94.856L44.4384 95.36C44.3864 95.336 44.3324 95.32 44.2764 95.312C44.2244 95.3 44.1744 95.294 44.1264 95.294C43.9904 95.294 43.8684 95.318 43.7604 95.366C43.6524 95.414 43.5604 95.482 43.4844 95.57C43.4084 95.654 43.3504 95.752 43.3104 95.864C43.2704 95.976 43.2504 96.096 43.2504 96.224V98H42.7944ZM45.5607 99.38L46.1667 97.904L46.2087 98.33L44.6367 94.868H45.1467L46.2207 97.268C46.2527 97.332 46.2847 97.408 46.3167 97.496C46.3487 97.58 46.3787 97.664 46.4067 97.748L46.2387 97.73C46.2667 97.662 46.2927 97.592 46.3167 97.52C46.3447 97.448 46.3707 97.378 46.3947 97.31L47.3367 94.868H47.8527L46.5867 98L46.0467 99.38H45.5607ZM51.2793 98.06C50.9953 98.06 50.7393 97.99 50.5113 97.85C50.2873 97.71 50.1093 97.518 49.9773 97.274C49.8493 97.026 49.7853 96.746 49.7853 96.434C49.7853 96.118 49.8513 95.838 49.9833 95.594C50.1153 95.346 50.2933 95.152 50.5173 95.012C50.7413 94.872 50.9933 94.802 51.2733 94.802C51.4293 94.802 51.5793 94.826 51.7233 94.874C51.8713 94.922 52.0033 94.99 52.1193 95.078C52.2353 95.162 52.3313 95.26 52.4073 95.372C52.4833 95.48 52.5293 95.594 52.5453 95.714L52.4073 95.666V93.56H52.8573V98H52.4133L52.4013 97.22L52.5153 97.178C52.4993 97.29 52.4533 97.4 52.3773 97.508C52.3053 97.612 52.2133 97.706 52.1013 97.79C51.9893 97.874 51.8613 97.94 51.7173 97.988C51.5773 98.036 51.4313 98.06 51.2793 98.06ZM51.3453 97.646C51.5533 97.646 51.7393 97.594 51.9033 97.49C52.0673 97.386 52.1953 97.242 52.2873 97.058C52.3833 96.874 52.4313 96.664 52.4313 96.428C52.4313 96.192 52.3833 95.984 52.2873 95.804C52.1953 95.62 52.0673 95.476 51.9033 95.372C51.7393 95.264 51.5533 95.21 51.3453 95.21C51.1293 95.21 50.9393 95.264 50.7753 95.372C50.6153 95.476 50.4873 95.62 50.3913 95.804C50.2993 95.984 50.2533 96.192 50.2533 96.428C50.2533 96.66 50.2993 96.868 50.3913 97.052C50.4833 97.236 50.6113 97.382 50.7753 97.49C50.9393 97.594 51.1293 97.646 51.3453 97.646ZM54.9579 98.06C54.6859 98.06 54.4399 97.99 54.2199 97.85C53.9999 97.706 53.8259 97.512 53.6979 97.268C53.5699 97.02 53.5059 96.74 53.5059 96.428C53.5059 96.112 53.5719 95.832 53.7039 95.588C53.8359 95.344 54.0119 95.152 54.2319 95.012C54.4559 94.872 54.7059 94.802 54.9819 94.802C55.1459 94.802 55.2979 94.826 55.4379 94.874C55.5779 94.922 55.7019 94.99 55.8099 95.078C55.9219 95.162 56.0139 95.262 56.0859 95.378C56.1619 95.49 56.2139 95.612 56.2419 95.744L56.1099 95.678L56.1279 94.868H56.5779V98H56.1219V97.232L56.2419 97.154C56.2139 97.274 56.1599 97.39 56.0799 97.502C55.9999 97.61 55.9019 97.706 55.7859 97.79C55.6739 97.874 55.5459 97.94 55.4019 97.988C55.2619 98.036 55.1139 98.06 54.9579 98.06ZM55.0599 97.628C55.2679 97.628 55.4539 97.578 55.6179 97.478C55.7819 97.374 55.9099 97.232 56.0019 97.052C56.0979 96.868 56.1459 96.66 56.1459 96.428C56.1459 96.196 56.0979 95.99 56.0019 95.81C55.9099 95.63 55.7819 95.488 55.6179 95.384C55.4539 95.28 55.2679 95.228 55.0599 95.228C54.8479 95.228 54.6599 95.28 54.4959 95.384C54.3359 95.488 54.2079 95.63 54.1119 95.81C54.0199 95.99 53.9739 96.196 53.9739 96.428C53.9739 96.656 54.0199 96.862 54.1119 97.046C54.2039 97.226 54.3319 97.368 54.4959 97.472C54.6599 97.576 54.8479 97.628 55.0599 97.628ZM57.8866 98V94.046H58.3366V98H57.8866ZM57.1786 95.3V94.868H59.1286V95.3H57.1786ZM61.0319 98.06C60.7199 98.06 60.4419 97.992 60.1979 97.856C59.9579 97.72 59.7699 97.53 59.6339 97.286C59.4979 97.042 59.4299 96.762 59.4299 96.446C59.4299 96.202 59.4679 95.982 59.5439 95.786C59.6199 95.586 59.7259 95.412 59.8619 95.264C60.0019 95.116 60.1679 95.002 60.3599 94.922C60.5519 94.838 60.7599 94.796 60.9839 94.796C61.1959 94.796 61.3879 94.834 61.5599 94.91C61.7359 94.986 61.8859 95.092 62.0099 95.228C62.1379 95.36 62.2339 95.518 62.2979 95.702C62.3619 95.886 62.3899 96.088 62.3819 96.308L62.3759 96.518H59.7659L59.6999 96.14H62.0339L61.9259 96.242V96.098C61.9179 95.954 61.8759 95.816 61.7999 95.684C61.7239 95.548 61.6159 95.438 61.4759 95.354C61.3399 95.27 61.1759 95.228 60.9839 95.228C60.7599 95.228 60.5659 95.274 60.4019 95.366C60.2379 95.454 60.1119 95.586 60.0239 95.762C59.9359 95.938 59.8919 96.156 59.8919 96.416C59.8919 96.664 59.9399 96.88 60.0359 97.064C60.1319 97.244 60.2679 97.384 60.4439 97.484C60.6239 97.584 60.8399 97.634 61.0919 97.634C61.2399 97.634 61.3859 97.61 61.5299 97.562C61.6779 97.51 61.8399 97.41 62.0159 97.262L62.2499 97.586C62.1579 97.678 62.0479 97.76 61.9199 97.832C61.7919 97.9 61.6519 97.956 61.4999 98C61.3479 98.04 61.1919 98.06 61.0319 98.06ZM63.267 98.06C63.159 98.06 63.075 98.028 63.015 97.964C62.959 97.9 62.931 97.808 62.931 97.688C62.931 97.58 62.961 97.492 63.021 97.424C63.085 97.352 63.167 97.316 63.267 97.316C63.375 97.316 63.457 97.35 63.513 97.418C63.573 97.482 63.603 97.572 63.603 97.688C63.603 97.8 63.571 97.89 63.507 97.958C63.447 98.026 63.367 98.06 63.267 98.06ZM63.267 95.546C63.159 95.546 63.075 95.514 63.015 95.45C62.959 95.386 62.931 95.294 62.931 95.174C62.931 95.066 62.961 94.978 63.021 94.91C63.085 94.838 63.167 94.802 63.267 94.802C63.375 94.802 63.457 94.836 63.513 94.904C63.573 94.968 63.603 95.058 63.603 95.174C63.603 95.286 63.571 95.376 63.507 95.444C63.447 95.512 63.367 95.546 63.267 95.546ZM69.9952 95.744L70.0432 94.958L70.0852 94.976L69.4012 95.414L69.2272 95.102L69.9652 94.742L69.9592 94.802L69.2212 94.442L69.3952 94.136L70.0912 94.58L70.0432 94.61L69.9952 93.8H70.3552L70.3072 94.634L70.2472 94.586L70.9432 94.142L71.1172 94.448L70.3852 94.808V94.742L71.1172 95.102L70.9372 95.408L70.2472 94.964H70.3072L70.3552 95.744H69.9952ZM72.3448 95.744L72.3928 94.958L72.4348 94.976L71.7508 95.414L71.5768 95.102L72.3148 94.742L72.3088 94.802L71.5708 94.442L71.7448 94.136L72.4408 94.58L72.3928 94.61L72.3448 93.8H72.7048L72.6568 94.634L72.5968 94.586L73.2928 94.142L73.4668 94.448L72.7348 94.808V94.742L73.4668 95.102L73.2868 95.408L72.5968 94.964H72.6568L72.7048 95.744H72.3448ZM73.9144 98.714L76.3504 93.8H76.8004L74.3764 98.714H73.9144ZM78.0518 95.744L78.0998 94.958L78.1418 94.976L77.4578 95.414L77.2838 95.102L78.0218 94.742L78.0158 94.802L77.2778 94.442L77.4518 94.136L78.1478 94.58L78.0998 94.61L78.0518 93.8H78.4118L78.3638 94.634L78.3038 94.586L78.9998 94.142L79.1738 94.448L78.4418 94.808V94.742L79.1738 95.102L78.9938 95.408L78.3038 94.964H78.3638L78.4118 95.744H78.0518ZM80.4014 95.744L80.4494 94.958L80.4914 94.976L79.8074 95.414L79.6334 95.102L80.3714 94.742L80.3654 94.802L79.6274 94.442L79.8014 94.136L80.4974 94.58L80.4494 94.61L80.4014 93.8H80.7614L80.7134 94.634L80.6534 94.586L81.3494 94.142L81.5234 94.448L80.7914 94.808V94.742L81.5234 95.102L81.3434 95.408L80.6534 94.964H80.7134L80.7614 95.744H80.4014Z" fill="#DADADA"/>
<path d="M34.584 123.12C34 123.12 33.464 123.016 32.976 122.808C32.488 122.6 32.064 122.304 31.704 121.92C31.344 121.528 31.064 121.068 30.864 120.54C30.672 120.012 30.576 119.432 30.576 118.8C30.576 118.2 30.68 117.644 30.888 117.132C31.104 116.612 31.4 116.156 31.776 115.764C32.152 115.372 32.588 115.068 33.084 114.852C33.58 114.636 34.116 114.528 34.692 114.528C35.1 114.528 35.496 114.592 35.88 114.72C36.272 114.84 36.624 115.012 36.936 115.236C37.256 115.452 37.516 115.7 37.716 115.98L36.852 116.88C36.62 116.648 36.384 116.456 36.144 116.304C35.912 116.144 35.672 116.024 35.424 115.944C35.184 115.864 34.94 115.824 34.692 115.824C34.3 115.824 33.932 115.9 33.588 116.052C33.252 116.196 32.956 116.4 32.7 116.664C32.452 116.928 32.256 117.244 32.112 117.612C31.968 117.972 31.896 118.368 31.896 118.8C31.896 119.256 31.964 119.672 32.1 120.048C32.244 120.416 32.444 120.732 32.7 120.996C32.956 121.26 33.26 121.464 33.612 121.608C33.972 121.744 34.368 121.812 34.8 121.812C35.064 121.812 35.324 121.776 35.58 121.704C35.836 121.632 36.076 121.528 36.3 121.392C36.524 121.256 36.728 121.096 36.912 120.912L37.56 121.968C37.376 122.184 37.124 122.38 36.804 122.556C36.492 122.732 36.14 122.872 35.748 122.976C35.364 123.072 34.976 123.12 34.584 123.12ZM41.4325 123.12C40.9125 123.12 40.4365 122.976 40.0045 122.688C39.5805 122.4 39.2405 122.008 38.9845 121.512C38.7285 121.016 38.6005 120.456 38.6005 119.832C38.6005 119.2 38.7285 118.64 38.9845 118.152C39.2485 117.656 39.6005 117.268 40.0405 116.988C40.4885 116.708 40.9885 116.568 41.5405 116.568C41.8685 116.568 42.1685 116.616 42.4405 116.712C42.7125 116.808 42.9485 116.944 43.1485 117.12C43.3565 117.288 43.5245 117.484 43.6525 117.708C43.7885 117.932 43.8725 118.172 43.9045 118.428L43.6285 118.332V116.7H44.8765V123H43.6285V121.5L43.9165 121.416C43.8685 121.632 43.7685 121.844 43.6165 122.052C43.4725 122.252 43.2845 122.432 43.0525 122.592C42.8285 122.752 42.5765 122.88 42.2965 122.976C42.0245 123.072 41.7365 123.12 41.4325 123.12ZM41.7565 121.98C42.1325 121.98 42.4645 121.888 42.7525 121.704C43.0405 121.52 43.2645 121.268 43.4245 120.948C43.5925 120.62 43.6765 120.248 43.6765 119.832C43.6765 119.424 43.5925 119.06 43.4245 118.74C43.2645 118.42 43.0405 118.168 42.7525 117.984C42.4645 117.8 42.1325 117.708 41.7565 117.708C41.3885 117.708 41.0605 117.8 40.7725 117.984C40.4925 118.168 40.2685 118.42 40.1005 118.74C39.9405 119.06 39.8605 119.424 39.8605 119.832C39.8605 120.248 39.9405 120.62 40.1005 120.948C40.2685 121.268 40.4925 121.52 40.7725 121.704C41.0605 121.888 41.3885 121.98 41.7565 121.98ZM46.6023 123V116.7H47.8503V118.68L47.7303 118.2C47.8183 117.896 47.9663 117.62 48.1743 117.372C48.3903 117.124 48.6343 116.928 48.9063 116.784C49.1863 116.64 49.4743 116.568 49.7703 116.568C49.9063 116.568 50.0343 116.58 50.1543 116.604C50.2823 116.628 50.3823 116.656 50.4543 116.688L50.1303 118.032C50.0343 117.992 49.9263 117.96 49.8063 117.936C49.6943 117.904 49.5823 117.888 49.4703 117.888C49.2543 117.888 49.0463 117.932 48.8463 118.02C48.6543 118.1 48.4823 118.216 48.3303 118.368C48.1863 118.512 48.0703 118.684 47.9823 118.884C47.8943 119.076 47.8503 119.288 47.8503 119.52V123H46.6023ZM53.8006 123.12C53.2246 123.12 52.7086 122.98 52.2526 122.7C51.8046 122.412 51.4486 122.024 51.1846 121.536C50.9206 121.04 50.7886 120.476 50.7886 119.844C50.7886 119.212 50.9166 118.652 51.1726 118.164C51.4366 117.668 51.7926 117.28 52.2406 117C52.6886 116.712 53.1966 116.568 53.7646 116.568C54.0766 116.568 54.3766 116.62 54.6646 116.724C54.9606 116.82 55.2246 116.956 55.4566 117.132C55.6886 117.3 55.8686 117.488 55.9966 117.696C56.1326 117.896 56.2006 118.1 56.2006 118.308L55.8406 118.332V114.12H57.0766V123H55.8406V121.5H56.0806C56.0806 121.692 56.0166 121.884 55.8886 122.076C55.7606 122.26 55.5886 122.432 55.3726 122.592C55.1646 122.752 54.9206 122.88 54.6406 122.976C54.3686 123.072 54.0886 123.12 53.8006 123.12ZM53.9686 122.052C54.3446 122.052 54.6766 121.956 54.9646 121.764C55.2526 121.572 55.4766 121.312 55.6366 120.984C55.8046 120.648 55.8886 120.268 55.8886 119.844C55.8886 119.42 55.8046 119.044 55.6366 118.716C55.4766 118.38 55.2526 118.116 54.9646 117.924C54.6766 117.732 54.3446 117.636 53.9686 117.636C53.5926 117.636 53.2606 117.732 52.9726 117.924C52.6846 118.116 52.4566 118.38 52.2886 118.716C52.1286 119.044 52.0486 119.42 52.0486 119.844C52.0486 120.268 52.1286 120.648 52.2886 120.984C52.4566 121.312 52.6846 121.572 52.9726 121.764C53.2606 121.956 53.5926 122.052 53.9686 122.052ZM67.9373 123V114.6H69.2333V123H67.9373ZM62.4533 123V114.6H63.7493V123H62.4533ZM63.0173 119.436V118.188H68.5133V119.436H63.0173ZM74.1023 123.12C73.4863 123.12 72.9343 122.98 72.4463 122.7C71.9663 122.412 71.5863 122.024 71.3063 121.536C71.0263 121.04 70.8863 120.476 70.8863 119.844C70.8863 119.212 71.0263 118.652 71.3063 118.164C71.5863 117.668 71.9663 117.28 72.4463 117C72.9343 116.712 73.4863 116.568 74.1023 116.568C74.7103 116.568 75.2543 116.712 75.7343 117C76.2223 117.28 76.6063 117.668 76.8863 118.164C77.1663 118.652 77.3063 119.212 77.3063 119.844C77.3063 120.476 77.1663 121.04 76.8863 121.536C76.6063 122.024 76.2223 122.412 75.7343 122.7C75.2543 122.98 74.7103 123.12 74.1023 123.12ZM74.1023 121.992C74.4783 121.992 74.8143 121.9 75.1103 121.716C75.4063 121.524 75.6383 121.268 75.8063 120.948C75.9743 120.62 76.0543 120.252 76.0463 119.844C76.0543 119.428 75.9743 119.06 75.8063 118.74C75.6383 118.412 75.4063 118.156 75.1103 117.972C74.8143 117.788 74.4783 117.696 74.1023 117.696C73.7263 117.696 73.3863 117.792 73.0823 117.984C72.7863 118.168 72.5543 118.424 72.3863 118.752C72.2183 119.072 72.1383 119.436 72.1463 119.844C72.1383 120.252 72.2183 120.62 72.3863 120.948C72.5543 121.268 72.7863 121.524 73.0823 121.716C73.3863 121.9 73.7263 121.992 74.1023 121.992ZM78.6771 123V114.12H79.9131V123H78.6771ZM84.1756 123.12C83.5996 123.12 83.0836 122.98 82.6276 122.7C82.1796 122.412 81.8236 122.024 81.5596 121.536C81.2956 121.04 81.1636 120.476 81.1636 119.844C81.1636 119.212 81.2916 118.652 81.5476 118.164C81.8116 117.668 82.1676 117.28 82.6156 117C83.0636 116.712 83.5716 116.568 84.1396 116.568C84.4516 116.568 84.7516 116.62 85.0396 116.724C85.3356 116.82 85.5996 116.956 85.8316 117.132C86.0636 117.3 86.2436 117.488 86.3716 117.696C86.5076 117.896 86.5756 118.1 86.5756 118.308L86.2156 118.332V114.12H87.4516V123H86.2156V121.5H86.4556C86.4556 121.692 86.3916 121.884 86.2636 122.076C86.1356 122.26 85.9636 122.432 85.7476 122.592C85.5396 122.752 85.2956 122.88 85.0156 122.976C84.7436 123.072 84.4636 123.12 84.1756 123.12ZM84.3436 122.052C84.7196 122.052 85.0516 121.956 85.3396 121.764C85.6276 121.572 85.8516 121.312 86.0116 120.984C86.1796 120.648 86.2636 120.268 86.2636 119.844C86.2636 119.42 86.1796 119.044 86.0116 118.716C85.8516 118.38 85.6276 118.116 85.3396 117.924C85.0516 117.732 84.7196 117.636 84.3436 117.636C83.9676 117.636 83.6356 117.732 83.3476 117.924C83.0596 118.116 82.8316 118.38 82.6636 118.716C82.5036 119.044 82.4236 119.42 82.4236 119.844C82.4236 120.268 82.5036 120.648 82.6636 120.984C82.8316 121.312 83.0596 121.572 83.3476 121.764C83.6356 121.956 83.9676 122.052 84.3436 122.052ZM92.0931 123.12C91.4451 123.12 90.8691 122.984 90.3651 122.712C89.8691 122.432 89.4771 122.052 89.1891 121.572C88.9091 121.092 88.7691 120.54 88.7691 119.916C88.7691 119.42 88.8491 118.968 89.0091 118.56C89.1691 118.152 89.3891 117.8 89.6691 117.504C89.9571 117.2 90.2971 116.968 90.6891 116.808C91.0891 116.64 91.5211 116.556 91.9851 116.556C92.3931 116.556 92.7731 116.636 93.1251 116.796C93.4771 116.948 93.7811 117.16 94.0371 117.432C94.3011 117.704 94.5011 118.028 94.6371 118.404C94.7811 118.772 94.8491 119.176 94.8411 119.616L94.8291 120.144H89.6811L89.4051 119.16H93.7611L93.5811 119.364V119.076C93.5571 118.812 93.4691 118.576 93.3171 118.368C93.1651 118.16 92.9731 117.996 92.7411 117.876C92.5091 117.756 92.2571 117.696 91.9851 117.696C91.5531 117.696 91.1891 117.78 90.8931 117.948C90.5971 118.108 90.3731 118.348 90.2211 118.668C90.0691 118.98 89.9931 119.368 89.9931 119.832C89.9931 120.272 90.0851 120.656 90.2691 120.984C90.4531 121.304 90.7131 121.552 91.0491 121.728C91.3851 121.904 91.7731 121.992 92.2131 121.992C92.5251 121.992 92.8131 121.94 93.0771 121.836C93.3491 121.732 93.6411 121.544 93.9531 121.272L94.5771 122.148C94.3851 122.34 94.1491 122.508 93.8691 122.652C93.5971 122.796 93.3051 122.912 92.9931 123C92.6891 123.08 92.3891 123.12 92.0931 123.12ZM96.1843 123V116.7H97.4323V118.68L97.3123 118.2C97.4003 117.896 97.5483 117.62 97.7563 117.372C97.9723 117.124 98.2163 116.928 98.4883 116.784C98.7683 116.64 99.0563 116.568 99.3523 116.568C99.4883 116.568 99.6163 116.58 99.7363 116.604C99.8643 116.628 99.9643 116.656 100.036 116.688L99.7123 118.032C99.6163 117.992 99.5083 117.96 99.3883 117.936C99.2763 117.904 99.1643 117.888 99.0523 117.888C98.8363 117.888 98.6283 117.932 98.4283 118.02C98.2363 118.1 98.0643 118.216 97.9123 118.368C97.7683 118.512 97.6523 118.684 97.5643 118.884C97.4763 119.076 97.4323 119.288 97.4323 119.52V123H96.1843ZM104.699 123V114.6H105.863L110.999 121.476L110.807 121.584C110.775 121.384 110.747 121.168 110.723 120.936C110.699 120.696 110.675 120.444 110.651 120.18C110.635 119.908 110.619 119.624 110.603 119.328C110.595 119.024 110.587 118.708 110.579 118.38C110.571 118.052 110.567 117.712 110.567 117.36V114.6H111.863V123H110.675L105.623 116.376L105.755 116.208C105.795 116.696 105.827 117.112 105.851 117.456C105.883 117.792 105.907 118.08 105.923 118.32C105.947 118.552 105.963 118.744 105.971 118.896C105.979 119.04 105.983 119.16 105.983 119.256C105.991 119.352 105.995 119.436 105.995 119.508V123H104.699ZM116.327 123.12C115.807 123.12 115.331 122.976 114.899 122.688C114.475 122.4 114.135 122.008 113.879 121.512C113.623 121.016 113.495 120.456 113.495 119.832C113.495 119.2 113.623 118.64 113.879 118.152C114.143 117.656 114.495 117.268 114.935 116.988C115.383 116.708 115.883 116.568 116.435 116.568C116.763 116.568 117.063 116.616 117.335 116.712C117.607 116.808 117.843 116.944 118.043 117.12C118.251 117.288 118.419 117.484 118.547 117.708C118.683 117.932 118.767 118.172 118.799 118.428L118.523 118.332V116.7H119.771V123H118.523V121.5L118.811 121.416C118.763 121.632 118.663 121.844 118.511 122.052C118.367 122.252 118.179 122.432 117.947 122.592C117.723 122.752 117.471 122.88 117.191 122.976C116.919 123.072 116.631 123.12 116.327 123.12ZM116.651 121.98C117.027 121.98 117.359 121.888 117.647 121.704C117.935 121.52 118.159 121.268 118.319 120.948C118.487 120.62 118.571 120.248 118.571 119.832C118.571 119.424 118.487 119.06 118.319 118.74C118.159 118.42 117.935 118.168 117.647 117.984C117.359 117.8 117.027 117.708 116.651 117.708C116.283 117.708 115.955 117.8 115.667 117.984C115.387 118.168 115.163 118.42 114.995 118.74C114.835 119.06 114.755 119.424 114.755 119.832C114.755 120.248 114.835 120.62 114.995 120.948C115.163 121.268 115.387 121.52 115.667 121.704C115.955 121.888 116.283 121.98 116.651 121.98ZM121.473 123V116.7H122.721V118.044L122.493 118.188C122.557 117.98 122.657 117.78 122.793 117.588C122.937 117.396 123.109 117.228 123.309 117.084C123.517 116.932 123.737 116.812 123.969 116.724C124.209 116.636 124.453 116.592 124.701 116.592C125.061 116.592 125.377 116.652 125.649 116.772C125.921 116.892 126.145 117.072 126.321 117.312C126.497 117.552 126.625 117.852 126.705 118.212L126.513 118.164L126.597 117.96C126.685 117.776 126.805 117.604 126.957 117.444C127.117 117.276 127.297 117.128 127.497 117C127.697 116.872 127.909 116.772 128.133 116.7C128.357 116.628 128.577 116.592 128.793 116.592C129.265 116.592 129.653 116.688 129.957 116.88C130.269 117.072 130.501 117.364 130.653 117.756C130.813 118.148 130.893 118.636 130.893 119.22V123H129.645V119.292C129.645 118.932 129.597 118.64 129.501 118.416C129.413 118.184 129.277 118.012 129.093 117.9C128.909 117.788 128.673 117.732 128.385 117.732C128.161 117.732 127.949 117.772 127.749 117.852C127.557 117.924 127.389 118.028 127.245 118.164C127.101 118.3 126.989 118.46 126.909 118.644C126.829 118.82 126.789 119.016 126.789 119.232V123H125.541V119.268C125.541 118.94 125.493 118.664 125.397 118.44C125.301 118.208 125.161 118.032 124.977 117.912C124.793 117.792 124.569 117.732 124.305 117.732C124.081 117.732 123.873 117.772 123.681 117.852C123.489 117.924 123.321 118.028 123.177 118.164C123.033 118.292 122.921 118.448 122.841 118.632C122.761 118.808 122.721 119 122.721 119.208V123H121.473ZM135.488 123.12C134.84 123.12 134.264 122.984 133.76 122.712C133.264 122.432 132.872 122.052 132.584 121.572C132.304 121.092 132.164 120.54 132.164 119.916C132.164 119.42 132.244 118.968 132.404 118.56C132.564 118.152 132.784 117.8 133.064 117.504C133.352 117.2 133.692 116.968 134.084 116.808C134.484 116.64 134.916 116.556 135.38 116.556C135.788 116.556 136.168 116.636 136.52 116.796C136.872 116.948 137.176 117.16 137.432 117.432C137.696 117.704 137.896 118.028 138.032 118.404C138.176 118.772 138.244 119.176 138.236 119.616L138.224 120.144H133.076L132.8 119.16H137.156L136.976 119.364V119.076C136.952 118.812 136.864 118.576 136.712 118.368C136.56 118.16 136.368 117.996 136.136 117.876C135.904 117.756 135.652 117.696 135.38 117.696C134.948 117.696 134.584 117.78 134.288 117.948C133.992 118.108 133.768 118.348 133.616 118.668C133.464 118.98 133.388 119.368 133.388 119.832C133.388 120.272 133.48 120.656 133.664 120.984C133.848 121.304 134.108 121.552 134.444 121.728C134.78 121.904 135.168 121.992 135.608 121.992C135.92 121.992 136.208 121.94 136.472 121.836C136.744 121.732 137.036 121.544 137.348 121.272L137.972 122.148C137.78 122.34 137.544 122.508 137.264 122.652C136.992 122.796 136.7 122.912 136.388 123C136.084 123.08 135.784 123.12 135.488 123.12Z" fill="#DADADA"/>
<g clip-path="url(#clip1_46_1804)">
<path d="M238.091 124.435V123.575C238.091 123.245 237.886 123.03 237.537 123.03C237.362 123.03 237.172 123.087 237.041 123.274C236.939 123.116 236.793 123.03 236.574 123.03C236.429 123.03 236.283 123.073 236.166 123.231V123.059H235.86V124.435H236.166V123.675C236.166 123.432 236.297 123.317 236.502 123.317C236.706 123.317 236.808 123.446 236.808 123.675V124.435H237.114V123.675C237.114 123.432 237.26 123.317 237.449 123.317C237.653 123.317 237.755 123.446 237.755 123.675V124.435H238.091ZM242.624 123.059H242.129V122.643H241.822V123.059H241.545V123.331H241.822V123.962C241.822 124.278 241.954 124.464 242.304 124.464C242.435 124.464 242.58 124.421 242.683 124.364L242.595 124.106C242.508 124.163 242.406 124.177 242.333 124.177C242.187 124.177 242.129 124.091 242.129 123.948V123.331H242.624V123.059ZM245.219 123.03C245.044 123.03 244.928 123.116 244.855 123.231V123.059H244.549V124.435H244.855V123.661C244.855 123.432 244.957 123.302 245.146 123.302C245.204 123.302 245.277 123.317 245.336 123.331L245.423 123.044C245.365 123.03 245.277 123.03 245.219 123.03V123.03ZM241.298 123.173C241.152 123.073 240.948 123.03 240.729 123.03C240.379 123.03 240.146 123.202 240.146 123.475C240.146 123.704 240.321 123.833 240.627 123.876L240.773 123.89C240.933 123.919 241.021 123.962 241.021 124.034C241.021 124.134 240.904 124.206 240.7 124.206C240.496 124.206 240.335 124.134 240.233 124.063L240.088 124.292C240.248 124.407 240.467 124.464 240.685 124.464C241.094 124.464 241.327 124.278 241.327 124.02C241.327 123.776 241.137 123.647 240.846 123.604L240.7 123.589C240.569 123.575 240.467 123.546 240.467 123.46C240.467 123.36 240.569 123.302 240.729 123.302C240.904 123.302 241.079 123.374 241.166 123.417L241.298 123.173ZM249.432 123.03C249.257 123.03 249.14 123.116 249.068 123.231V123.059H248.761V124.435H249.068V123.661C249.068 123.432 249.17 123.302 249.359 123.302C249.417 123.302 249.49 123.317 249.549 123.331L249.636 123.044C249.578 123.03 249.49 123.03 249.432 123.03ZM245.525 123.747C245.525 124.163 245.817 124.464 246.269 124.464C246.473 124.464 246.619 124.421 246.764 124.306L246.619 124.063C246.502 124.149 246.385 124.192 246.254 124.192C246.006 124.192 245.831 124.02 245.831 123.747C245.831 123.489 246.006 123.317 246.254 123.302C246.385 123.302 246.502 123.345 246.619 123.432L246.764 123.188C246.619 123.073 246.473 123.03 246.269 123.03C245.817 123.03 245.525 123.331 245.525 123.747ZM248.353 123.747V123.059H248.047V123.231C247.945 123.102 247.799 123.03 247.61 123.03C247.216 123.03 246.91 123.331 246.91 123.747C246.91 124.163 247.216 124.464 247.61 124.464C247.814 124.464 247.96 124.392 248.047 124.263V124.435H248.353V123.747ZM247.231 123.747C247.231 123.503 247.391 123.302 247.654 123.302C247.901 123.302 248.076 123.489 248.076 123.747C248.076 123.991 247.901 124.192 247.654 124.192C247.391 124.177 247.231 123.991 247.231 123.747ZM243.572 123.03C243.164 123.03 242.872 123.317 242.872 123.747C242.872 124.177 243.164 124.464 243.586 124.464C243.79 124.464 243.995 124.407 244.155 124.278L244.009 124.063C243.892 124.149 243.747 124.206 243.601 124.206C243.411 124.206 243.222 124.12 243.178 123.876H244.213V123.761C244.228 123.317 243.965 123.03 243.572 123.03H243.572ZM243.572 123.288C243.761 123.288 243.893 123.403 243.922 123.618H243.193C243.222 123.432 243.353 123.288 243.572 123.288ZM251.167 123.747V122.514H250.861V123.231C250.759 123.102 250.613 123.03 250.423 123.03C250.03 123.03 249.724 123.331 249.724 123.747C249.724 124.163 250.03 124.464 250.423 124.464C250.627 124.464 250.773 124.392 250.861 124.263V124.435H251.167V123.747ZM250.044 123.747C250.044 123.503 250.205 123.302 250.467 123.302C250.715 123.302 250.89 123.489 250.89 123.747C250.89 123.991 250.715 124.192 250.467 124.192C250.205 124.177 250.044 123.991 250.044 123.747ZM239.811 123.747V123.059H239.505V123.231C239.402 123.102 239.257 123.03 239.067 123.03C238.674 123.03 238.367 123.331 238.367 123.747C238.367 124.163 238.674 124.464 239.067 124.464C239.271 124.464 239.417 124.392 239.505 124.263V124.435H239.811V123.747ZM238.674 123.747C238.674 123.503 238.834 123.302 239.096 123.302C239.344 123.302 239.519 123.489 239.519 123.747C239.519 123.991 239.344 124.192 239.096 124.192C238.834 124.177 238.674 123.991 238.674 123.747Z" fill="#DADADA"/>
<path d="M241.196 112.604H245.788V120.721H241.196V112.604Z" fill="#FF5F00"/>
<path d="M241.487 116.663C241.487 115.014 242.274 113.551 243.484 112.604C242.595 111.916 241.473 111.5 240.248 111.5C237.347 111.5 235 113.809 235 116.663C235 119.516 237.347 121.825 240.248 121.825C241.473 121.825 242.595 121.41 243.484 120.721C242.274 119.789 241.487 118.312 241.487 116.663Z" fill="#EB001B"/>
<path d="M251.983 116.663C251.983 119.516 249.636 121.825 246.735 121.825C245.51 121.825 244.388 121.41 243.499 120.721C244.723 119.775 245.496 118.312 245.496 116.663C245.496 115.014 244.709 113.551 243.499 112.604C244.388 111.916 245.51 111.5 246.735 111.5C249.636 111.5 251.983 113.823 251.983 116.663H251.983Z" fill="#F79E1B"/>
</g>
<rect x="1.5" y="0.5" width="279" height="151" rx="15.5" stroke="url(#paint1_linear_46_1804)" shape-rendering="crispEdges"/>
</g>
<defs>
<filter id="filter0_d_46_1804" x="0" y="0" width="282" height="181" filterUnits="userSpaceOnUse" color-interpolation-filters="sRGB">
<feFlood flood-opacity="0" result="BackgroundImageFix"/>
<feColorMatrix in="SourceAlpha" type="matrix" values="0 0 0 0 0 0 0 0 0 0 0 0 0 0 0 0 0 0 127 0" result="hardAlpha"/>
<feMorphology radius="15" operator="erode" in="SourceAlpha" result="effect1_dropShadow_46_1804"/>
<feOffset dy="28"/>
<feGaussianBlur stdDeviation="8"/>
<feComposite in2="hardAlpha" operator="out"/>
<feColorMatrix type="matrix" values="0 0 0 0 0 0 0 0 0 0 0 0 0 0 0 0 0 0 0.3 0"/>
<feBlend mode="normal" in2="BackgroundImageFix" result="effect1_dropShadow_46_1804"/>
<feBlend mode="normal" in="SourceGraphic" in2="effect1_dropShadow_46_1804" result="shape"/>
</filter>
<linearGradient id="paint0_linear_46_1804" x1="301.45" y1="-7.13941" x2="71.6594" y2="124.836" gradientUnits="userSpaceOnUse">
<stop stop-color="#E9A036"/>
<stop offset="1" stop-color="#E9A036" stop-opacity="0"/>
</linearGradient>
<linearGradient id="paint1_linear_46_1804" x1="111.564" y1="-11.2559" x2="113.418" y2="223.895" gradientUnits="userSpaceOnUse">
<stop stop-color="#3F3B36"/>
<stop stop-opacity="0.660361"/>
<stop offset="1" stop-color="#F0A500"/>
<stop offset="1" stop-color="#DE9E52" stop-opacity="0.596669"/>
</linearGradient>
<clipPath id="clip0_46_1804">
<rect width="20" height="20" fill="white" transform="translate(36.2863 24)"/>
</clipPath>
<clipPath id="clip1_46_1804">
<rect width="17" height="13" fill="white" transform="translate(235 111.5)"/>
</clipPath>
</defs>
</svg>
